<!DOCTYPE svg PUBLIC "-//W3C//DTD SVG 1.1//EN" "http://www.w3.org/Graphics/SVG/1.1/DTD/svg11.dtd">
<!-- Uploaded to: SVG Repo, www.svgrepo.com, Transformed by: SVG Repo Mixer Tools -->
<svg version="1.1" id="Layer_1" xmlns="http://www.w3.org/2000/svg" xmlns:xlink="http://www.w3.org/1999/xlink" viewBox="0 0 512 512" xml:space="preserve" width="800px" height="800px" fill="#000000">
<g id="SVGRepo_bgCarrier" stroke-width="0"/>
<g id="SVGRepo_tracerCarrier" stroke-linecap="round" stroke-linejoin="round"/>
<g id="SVGRepo_iconCarrier"> <path style="fill:#f77e7e;" d="M320.81,9.722c-35.793,0-64.81,29.017-64.81,64.81c0-35.793-29.017-64.81-64.81-64.81 s-64.81,29.017-64.81,64.81s29.017,64.81,64.81,64.81H256h64.81c35.793,0,64.81-29.017,64.81-64.81S356.603,9.722,320.81,9.722z M217.114,100.456H191.19c-14.318,0-25.924-11.606-25.924-25.924s11.606-25.924,25.924-25.924c14.318,0,25.924,11.606,25.924,25.924 V100.456z M320.81,100.456h-25.924V74.532c0-14.318,11.606-25.924,25.924-25.924s25.924,11.606,25.924,25.924 S335.128,100.456,320.81,100.456z"/> <path style="fill:#ee7c7c;" d="M320.81,9.722c-6.775,0-13.304,1.043-19.443,2.971c26.293,8.259,45.367,32.82,45.367,61.839 c0,35.793-29.017,64.81-64.81,64.81h38.886c35.793,0,64.81-29.017,64.81-64.81S356.603,9.722,320.81,9.722z"/> <rect x="61.57" y="230.076" style="fill:#466cdd;" width="388.861" height="272.203"/> <polygon style="fill:#1420c8;" points="61.57,230.076 61.57,268.962 385.62,268.962 385.62,502.278 450.43,502.278 450.43,230.076 "/> <rect x="35.646" y="139.342" style="fill:#7579e1;" width="440.709" height="103.696"/> <rect x="411.544" y="139.342" style="fill:#466cdd;" width="64.81" height="103.696"/> <rect x="217.114" y="139.342" style="fill:#f89b9b;" width="77.772" height="362.937"/> <rect x="217.114" y="243.038" style="fill:#f77e7e;" width="77.772" height="25.924"/> <path style="fill:#ee7c7c;" d="M191.19,9.722c-6.775,0-13.304,1.043-19.443,2.971c26.293,8.259,45.367,32.82,45.367,61.839v25.924 v38.886H256v-64.81C256,38.738,226.983,9.722,191.19,9.722z"/> <g> <path style="fill:#2E2D31;" d="M476.354,129.62H370.959c14.971-13.641,24.383-33.285,24.383-55.089 C395.342,33.434,361.908,0,320.81,0C293.065,0,268.83,15.25,256,37.796C243.169,15.25,218.935,0,191.19,0 c-41.097,0-74.532,33.434-74.532,74.532c0,21.803,9.412,41.447,24.383,55.089H35.646c-5.369,0-9.722,4.351-9.722,9.722v103.696 c0,5.37,4.353,9.722,9.722,9.722h16.203v249.519c0,5.37,4.353,9.722,9.722,9.722H450.43c5.369,0,9.722-4.351,9.722-9.722V294.886 c0-5.37-4.353-9.722-9.722-9.722s-9.722,4.351-9.722,9.722v197.671H304.608V294.886c0-5.37-4.353-9.722-9.722-9.722 s-9.722,4.351-9.722,9.722v197.671h-58.329V252.759H450.43h25.924c5.369,0,9.722-4.351,9.722-9.722V139.342 C486.076,133.972,481.723,129.62,476.354,129.62z M320.81,19.443c30.377,0,55.089,24.712,55.089,55.089 s-24.712,55.089-55.089,55.089h-55.089V74.532C265.722,44.155,290.434,19.443,320.81,19.443z M136.101,74.532 c0-30.377,24.712-55.089,55.089-55.089s55.089,24.712,55.089,55.089v55.089H191.19C160.813,129.62,136.101,104.908,136.101,74.532z M45.367,149.063h162.025v84.253H45.367V149.063z M207.392,492.557H71.291V252.759h136.101V492.557z M226.835,149.063h58.329 v84.253h-58.329V149.063z M466.633,233.316H304.608v-84.253h162.025V233.316z"/> <path style="fill:#2E2D31;" d="M226.835,100.456V74.532c0-19.654-15.99-35.646-35.646-35.646s-35.646,15.991-35.646,35.646 s15.99,35.646,35.646,35.646h25.924C222.483,110.177,226.835,105.826,226.835,100.456z M207.392,90.734H191.19 c-8.935,0-16.203-7.268-16.203-16.203s7.268-16.203,16.203-16.203c8.935,0,16.203,7.268,16.203,16.203V90.734z"/> <path style="fill:#2E2D31;" d="M294.886,110.177h25.924c19.656,0,35.646-15.991,35.646-35.646s-15.99-35.646-35.646-35.646 c-19.656,0-35.646,15.991-35.646,35.646v25.924C285.165,105.826,289.517,110.177,294.886,110.177z M304.608,74.532 c0-8.935,7.268-16.203,16.203-16.203c8.935,0,16.203,7.268,16.203,16.203s-7.268,16.203-16.203,16.203h-16.203V74.532z"/> </g> </g>
</svg>